<mxfile host="app.diagrams.net" modified="2024-04-07T09:51:33.480Z" agent="Mozilla/5.0 (X11; Linux x86_64) AppleWebKit/537.36 (KHTML, like Gecko) Chrome/122.0.0.0 Safari/537.36" etag="SpyCTNHMM6eyN-gZ1M3L" version="24.0.1" type="github">
  <diagram name="Page-1" id="4GQaYxwLXLBL1G1ahxAC">
    <mxGraphModel dx="810" dy="447" grid="1" gridSize="10" guides="1" tooltips="1" connect="1" arrows="1" fold="1" page="1" pageScale="1" pageWidth="850" pageHeight="1100" math="0" shadow="0">
      <root>
        <mxCell id="0" />
        <mxCell id="1" parent="0" />
        <mxCell id="USSTf6IhNfq5ffD1cWFj-1" value="" style="whiteSpace=wrap;html=1;aspect=fixed;" vertex="1" parent="1">
          <mxGeometry x="40" y="40" width="400" height="400" as="geometry" />
        </mxCell>
        <mxCell id="USSTf6IhNfq5ffD1cWFj-2" value="" style="endArrow=none;html=1;rounded=0;entryX=1;entryY=0.105;entryDx=0;entryDy=0;entryPerimeter=0;exitX=0.008;exitY=0.105;exitDx=0;exitDy=0;exitPerimeter=0;" edge="1" parent="1" source="USSTf6IhNfq5ffD1cWFj-1" target="USSTf6IhNfq5ffD1cWFj-1">
          <mxGeometry width="50" height="50" relative="1" as="geometry">
            <mxPoint x="40" y="70" as="sourcePoint" />
            <mxPoint x="438.4000000000001" y="87.60000000000002" as="targetPoint" />
          </mxGeometry>
        </mxCell>
        <mxCell id="USSTf6IhNfq5ffD1cWFj-4" value="" style="rounded=0;whiteSpace=wrap;html=1;" vertex="1" parent="1">
          <mxGeometry x="40" y="150" width="400" height="60" as="geometry" />
        </mxCell>
        <mxCell id="USSTf6IhNfq5ffD1cWFj-5" value="" style="rounded=0;whiteSpace=wrap;html=1;" vertex="1" parent="1">
          <mxGeometry x="40" y="260" width="400" height="60" as="geometry" />
        </mxCell>
        <mxCell id="USSTf6IhNfq5ffD1cWFj-6" value="" style="rounded=0;whiteSpace=wrap;html=1;" vertex="1" parent="1">
          <mxGeometry x="40" y="350" width="400" height="60" as="geometry" />
        </mxCell>
      </root>
    </mxGraphModel>
  </diagram>
</mxfile>
